<mxfile host="app.diagrams.net" agent="Mozilla/5.0 (Windows NT 10.0; Win64; x64) AppleWebKit/537.36 (KHTML, like Gecko) Chrome/130.0.0.0 Safari/537.36 Edg/130.0.0.0" version="24.8.0">
  <diagram name="Page-1" id="Ol5xf-bs4NL86DHREXR4">
    <mxGraphModel dx="2377" dy="2474" grid="1" gridSize="10" guides="1" tooltips="1" connect="1" arrows="1" fold="1" page="1" pageScale="1" pageWidth="827" pageHeight="1169" math="0" shadow="0">
      <root>
        <mxCell id="0" />
        <mxCell id="1" parent="0" />
        <mxCell id="k_DB3OoUYmdmuSbHbWE_-3" value="" style="edgeStyle=orthogonalEdgeStyle;rounded=0;orthogonalLoop=1;jettySize=auto;html=1;" edge="1" parent="1" source="k_DB3OoUYmdmuSbHbWE_-1" target="k_DB3OoUYmdmuSbHbWE_-2">
          <mxGeometry relative="1" as="geometry" />
        </mxCell>
        <mxCell id="k_DB3OoUYmdmuSbHbWE_-1" value="" style="points=[[0.145,0.145,0],[0.5,0,0],[0.855,0.145,0],[1,0.5,0],[0.855,0.855,0],[0.5,1,0],[0.145,0.855,0],[0,0.5,0]];shape=mxgraph.bpmn.event;html=1;verticalLabelPosition=bottom;labelBackgroundColor=#ffffff;verticalAlign=top;align=center;perimeter=ellipsePerimeter;outlineConnect=0;aspect=fixed;outline=standard;symbol=general;" vertex="1" parent="1">
          <mxGeometry x="60" y="130" width="50" height="50" as="geometry" />
        </mxCell>
        <mxCell id="k_DB3OoUYmdmuSbHbWE_-5" value="" style="edgeStyle=orthogonalEdgeStyle;rounded=0;orthogonalLoop=1;jettySize=auto;html=1;" edge="1" parent="1" source="k_DB3OoUYmdmuSbHbWE_-2" target="k_DB3OoUYmdmuSbHbWE_-4">
          <mxGeometry relative="1" as="geometry" />
        </mxCell>
        <mxCell id="k_DB3OoUYmdmuSbHbWE_-2" value="receive a order compares against the origin order&amp;nbsp;" style="whiteSpace=wrap;html=1;verticalAlign=top;labelBackgroundColor=#ffffff;" vertex="1" parent="1">
          <mxGeometry x="170" y="125" width="120" height="60" as="geometry" />
        </mxCell>
        <mxCell id="k_DB3OoUYmdmuSbHbWE_-7" value="" style="edgeStyle=orthogonalEdgeStyle;rounded=0;orthogonalLoop=1;jettySize=auto;html=1;" edge="1" parent="1" source="k_DB3OoUYmdmuSbHbWE_-4" target="k_DB3OoUYmdmuSbHbWE_-6">
          <mxGeometry relative="1" as="geometry" />
        </mxCell>
        <mxCell id="k_DB3OoUYmdmuSbHbWE_-4" value="produce an invoice for customer&amp;nbsp;" style="whiteSpace=wrap;html=1;verticalAlign=top;labelBackgroundColor=#ffffff;" vertex="1" parent="1">
          <mxGeometry x="370" y="125" width="120" height="60" as="geometry" />
        </mxCell>
        <mxCell id="k_DB3OoUYmdmuSbHbWE_-9" value="" style="edgeStyle=orthogonalEdgeStyle;rounded=0;orthogonalLoop=1;jettySize=auto;html=1;" edge="1" parent="1" source="k_DB3OoUYmdmuSbHbWE_-6" target="k_DB3OoUYmdmuSbHbWE_-8">
          <mxGeometry relative="1" as="geometry" />
        </mxCell>
        <mxCell id="k_DB3OoUYmdmuSbHbWE_-6" value="a delivery note to company&amp;nbsp;" style="whiteSpace=wrap;html=1;verticalAlign=top;labelBackgroundColor=#ffffff;" vertex="1" parent="1">
          <mxGeometry x="570" y="125" width="120" height="60" as="geometry" />
        </mxCell>
        <mxCell id="k_DB3OoUYmdmuSbHbWE_-11" value="" style="edgeStyle=orthogonalEdgeStyle;rounded=0;orthogonalLoop=1;jettySize=auto;html=1;" edge="1" parent="1" source="k_DB3OoUYmdmuSbHbWE_-8" target="k_DB3OoUYmdmuSbHbWE_-10">
          <mxGeometry relative="1" as="geometry" />
        </mxCell>
        <mxCell id="k_DB3OoUYmdmuSbHbWE_-12" value="have good credit rating" style="edgeLabel;html=1;align=center;verticalAlign=middle;resizable=0;points=[];" vertex="1" connectable="0" parent="k_DB3OoUYmdmuSbHbWE_-11">
          <mxGeometry x="-0.0222" y="-1" relative="1" as="geometry">
            <mxPoint as="offset" />
          </mxGeometry>
        </mxCell>
        <mxCell id="k_DB3OoUYmdmuSbHbWE_-17" value="" style="edgeStyle=orthogonalEdgeStyle;rounded=0;orthogonalLoop=1;jettySize=auto;html=1;" edge="1" parent="1" source="k_DB3OoUYmdmuSbHbWE_-8" target="k_DB3OoUYmdmuSbHbWE_-16">
          <mxGeometry relative="1" as="geometry" />
        </mxCell>
        <mxCell id="k_DB3OoUYmdmuSbHbWE_-18" value="cash-on-delivery" style="edgeLabel;html=1;align=center;verticalAlign=middle;resizable=0;points=[];" vertex="1" connectable="0" parent="k_DB3OoUYmdmuSbHbWE_-17">
          <mxGeometry x="0.0118" y="-3" relative="1" as="geometry">
            <mxPoint as="offset" />
          </mxGeometry>
        </mxCell>
        <mxCell id="k_DB3OoUYmdmuSbHbWE_-8" value="" style="rhombus;whiteSpace=wrap;html=1;verticalAlign=top;labelBackgroundColor=#ffffff;" vertex="1" parent="1">
          <mxGeometry x="790" y="115" width="80" height="80" as="geometry" />
        </mxCell>
        <mxCell id="k_DB3OoUYmdmuSbHbWE_-14" value="" style="edgeStyle=orthogonalEdgeStyle;rounded=0;orthogonalLoop=1;jettySize=auto;html=1;" edge="1" parent="1" source="k_DB3OoUYmdmuSbHbWE_-10" target="k_DB3OoUYmdmuSbHbWE_-13">
          <mxGeometry relative="1" as="geometry" />
        </mxCell>
        <mxCell id="k_DB3OoUYmdmuSbHbWE_-10" value="the invoice is sent directly to the customer&amp;nbsp;" style="whiteSpace=wrap;html=1;verticalAlign=top;labelBackgroundColor=#ffffff;" vertex="1" parent="1">
          <mxGeometry x="770" y="-80" width="120" height="60" as="geometry" />
        </mxCell>
        <mxCell id="k_DB3OoUYmdmuSbHbWE_-21" value="" style="edgeStyle=orthogonalEdgeStyle;rounded=0;orthogonalLoop=1;jettySize=auto;html=1;" edge="1" parent="1" source="k_DB3OoUYmdmuSbHbWE_-13" target="k_DB3OoUYmdmuSbHbWE_-20">
          <mxGeometry relative="1" as="geometry" />
        </mxCell>
        <mxCell id="k_DB3OoUYmdmuSbHbWE_-13" value="" style="rhombus;whiteSpace=wrap;html=1;verticalAlign=top;labelBackgroundColor=#ffffff;" vertex="1" parent="1">
          <mxGeometry x="1350" y="115" width="80" height="80" as="geometry" />
        </mxCell>
        <mxCell id="k_DB3OoUYmdmuSbHbWE_-16" value="the voice is forwarded to the warehouse for packing with the product&amp;nbsp;" style="whiteSpace=wrap;html=1;verticalAlign=top;labelBackgroundColor=#ffffff;" vertex="1" parent="1">
          <mxGeometry x="1080" y="125" width="120" height="60" as="geometry" />
        </mxCell>
        <mxCell id="k_DB3OoUYmdmuSbHbWE_-19" style="edgeStyle=orthogonalEdgeStyle;rounded=0;orthogonalLoop=1;jettySize=auto;html=1;entryX=0.088;entryY=0.5;entryDx=0;entryDy=0;entryPerimeter=0;" edge="1" parent="1" source="k_DB3OoUYmdmuSbHbWE_-16" target="k_DB3OoUYmdmuSbHbWE_-13">
          <mxGeometry relative="1" as="geometry" />
        </mxCell>
        <mxCell id="k_DB3OoUYmdmuSbHbWE_-23" style="edgeStyle=orthogonalEdgeStyle;rounded=0;orthogonalLoop=1;jettySize=auto;html=1;" edge="1" parent="1" source="k_DB3OoUYmdmuSbHbWE_-20" target="k_DB3OoUYmdmuSbHbWE_-22">
          <mxGeometry relative="1" as="geometry" />
        </mxCell>
        <mxCell id="k_DB3OoUYmdmuSbHbWE_-20" value="delivery note is sent to the warehouse&amp;nbsp;" style="whiteSpace=wrap;html=1;verticalAlign=top;labelBackgroundColor=#ffffff;" vertex="1" parent="1">
          <mxGeometry x="1490" y="125" width="120" height="60" as="geometry" />
        </mxCell>
        <mxCell id="k_DB3OoUYmdmuSbHbWE_-22" value="" style="points=[[0.145,0.145,0],[0.5,0,0],[0.855,0.145,0],[1,0.5,0],[0.855,0.855,0],[0.5,1,0],[0.145,0.855,0],[0,0.5,0]];shape=mxgraph.bpmn.event;html=1;verticalLabelPosition=bottom;labelBackgroundColor=#ffffff;verticalAlign=top;align=center;perimeter=ellipsePerimeter;outlineConnect=0;aspect=fixed;outline=end;symbol=terminate2;" vertex="1" parent="1">
          <mxGeometry x="1680" y="130" width="50" height="50" as="geometry" />
        </mxCell>
        <mxCell id="k_DB3OoUYmdmuSbHbWE_-24" value="&lt;p dir=&quot;auto&quot; style=&quot;box-sizing: border-box; margin-top: 0px; margin-bottom: var(--base-size-16); color: rgb(31, 35, 40); font-family: -apple-system, BlinkMacSystemFont, &amp;quot;Segoe UI&amp;quot;, &amp;quot;Noto Sans&amp;quot;, Helvetica, Arial, sans-serif, &amp;quot;Apple Color Emoji&amp;quot;, &amp;quot;Segoe UI Emoji&amp;quot;; font-size: 16px; font-style: normal; font-variant-ligatures: normal; font-variant-caps: normal; font-weight: 400; letter-spacing: normal; orphans: 2; text-align: start; text-indent: 0px; text-transform: none; widows: 2; word-spacing: 0px; -webkit-text-stroke-width: 0px; white-space: normal; background-color: rgb(255, 255, 255); text-decoration-thickness: initial; text-decoration-style: initial; text-decoration-color: initial;&quot;&gt;&lt;strong style=&quot;box-sizing: border-box; font-weight: var(--base-text-weight-semibold, 600);&quot;&gt;BPMN Exercise 3&lt;/strong&gt;&lt;span&gt;&amp;nbsp;&lt;/span&gt;Manufacturing Company â€“ Produce Invoice and Delivery Note&lt;/p&gt;&lt;ol dir=&quot;auto&quot; style=&quot;box-sizing: border-box; padding-left: 2em; margin-top: 0px; margin-bottom: 0px !important; color: rgb(31, 35, 40); font-family: -apple-system, BlinkMacSystemFont, &amp;quot;Segoe UI&amp;quot;, &amp;quot;Noto Sans&amp;quot;, Helvetica, Arial, sans-serif, &amp;quot;Apple Color Emoji&amp;quot;, &amp;quot;Segoe UI Emoji&amp;quot;; font-size: 16px; font-style: normal; font-variant-ligatures: normal; font-variant-caps: normal; font-weight: 400; letter-spacing: normal; orphans: 2; text-align: start; text-indent: 0px; text-transform: none; widows: 2; word-spacing: 0px; -webkit-text-stroke-width: 0px; white-space: normal; background-color: rgb(255, 255, 255); text-decoration-thickness: initial; text-decoration-style: initial; text-decoration-color: initial;&quot;&gt;&lt;li style=&quot;box-sizing: border-box;&quot;&gt;When a completed work order is received it is compared against the original order&lt;/li&gt;&lt;li style=&quot;box-sizing: border-box; margin-top: 0.25em;&quot;&gt;An invoice for the customer is produced&lt;/li&gt;&lt;li style=&quot;box-sizing: border-box; margin-top: 0.25em;&quot;&gt;A delivery note is produced to accompany the product&lt;/li&gt;&lt;li style=&quot;box-sizing: border-box; margin-top: 0.25em;&quot;&gt;If the customer has a good credit rating, the invoice is sent directly to the customer&lt;/li&gt;&lt;li style=&quot;box-sizing: border-box; margin-top: 0.25em;&quot;&gt;If the customer is cash-on-delivery (COD) the invoice is forwarded to the warehouse for packing with the product.&lt;/li&gt;&lt;li style=&quot;box-sizing: border-box; margin-top: 0.25em;&quot;&gt;The delivery note is sent to the warehouse&lt;/li&gt;&lt;/ol&gt;" style="text;whiteSpace=wrap;html=1;" vertex="1" parent="1">
          <mxGeometry x="50" y="-300" width="880" height="190" as="geometry" />
        </mxCell>
      </root>
    </mxGraphModel>
  </diagram>
</mxfile>
